<svg data-v-fde0c5aa="" xmlns="http://www.w3.org/2000/svg" viewBox="0 0 300 300" class="iconLeft"><!----><defs data-v-fde0c5aa=""><!----></defs><rect data-v-fde0c5aa="" fill="#509FF9" x="0" y="0" width="300px" height="300px" class="logo-background-square"></rect><defs data-v-fde0c5aa=""><!----></defs><g data-v-fde0c5aa="" id="e32df6ce-9d5d-409f-a9f3-16f3aa19a033" fill="#FFC096" transform="matrix(6.634615425174759,0,0,6.634615425174759,144.8230721695183,91.94711661153644)"><path d="M6.89 8.37C7.85 8.04 8.39 7.38 8.39 6.38C8.39 5.08 7.52 4.17 5.95 3.98C5.47 3.92 5.19 3.92 4.70 3.92L1.25 3.92L1.25 13.58L4.76 13.58C5.31 13.58 5.61 13.58 6.10 13.52C7.39 13.34 8.75 12.49 8.75 10.70C8.75 9.45 8.13 8.69 6.89 8.37ZM3.18 5.43L4.58 5.43C4.80 5.43 5.05 5.45 5.28 5.47C5.92 5.56 6.37 5.91 6.37 6.64C6.37 7.34 6.02 7.73 5.32 7.84C5.10 7.87 4.87 7.88 4.63 7.88L3.18 7.88ZM5.50 12.04C5.32 12.05 5.08 12.05 4.86 12.05L3.18 12.05L3.18 9.32L4.79 9.32C5.01 9.32 5.24 9.34 5.47 9.37C6.17 9.44 6.72 9.81 6.72 10.71C6.72 11.52 6.17 11.98 5.50 12.04ZM13.65 3.72C11.80 3.72 10.19 4.77 10.19 6.55C10.19 8.33 11.44 9.02 13.41 9.49C14.84 9.83 15.34 10.30 15.34 11.12C15.34 11.86 14.64 12.33 13.76 12.33C12.78 12.33 11.97 11.79 11.76 10.72L9.79 10.72C9.97 12.75 11.48 13.78 13.79 13.78C15.69 13.78 17.36 12.74 17.36 10.92C17.36 9.37 16.41 8.39 14.28 7.90C12.74 7.53 12.22 7.13 12.22 6.31C12.22 5.53 12.81 5.17 13.58 5.17C14.59 5.17 15.13 5.78 15.25 6.76L17.22 6.76C17.01 5.04 15.96 3.72 13.65 3.72Z"></path></g><defs data-v-fde0c5aa=""><!----></defs><g data-v-fde0c5aa="" id="e57a613f-e556-4687-b538-d1dd0964ff47" stroke="none" fill="#FFC096" transform="matrix(3.128635670343336,0,0,3.128635670343336,40,99.94182927450663)"><path d="M11.579 32H32L21.789 14.314z"></path><circle cx="8.683" cy="8.683" r="8.683"></circle></g><!----></svg>